<svg width="16" height="16" viewBox="0 0 16 16" fill="none" xmlns="http://www.w3.org/2000/svg">
<path fill-rule="evenodd" clip-rule="evenodd" d="M10.5 13C10.5 13.1326 10.5527 13.2598 10.6465 13.3535C10.7402 13.4473 10.8674 13.5 11 13.5H12V15C12 15.1326 12.0527 15.2598 12.1464 15.3536C12.2402 15.4473 12.3674 15.5 12.5 15.5C12.6326 15.5 12.7598 15.4473 12.8536 15.3536C12.9473 15.2598 13 15.1326 13 15V13.5H14C14.1326 13.5 14.2598 13.4473 14.3535 13.3535C14.4473 13.2598 14.5 13.1326 14.5 13V11.5C14.5 11.3674 14.4473 11.2402 14.3535 11.1465C14.2598 11.0527 14.1326 11 14 11H13V2C13 1.86739 12.9473 1.74021 12.8536 1.64645C12.7598 1.55268 12.6326 1.5 12.5 1.5C12.3674 1.5 12.2402 1.55268 12.1464 1.64645C12.0527 1.74021 12 1.86739 12 2V11H11C10.8674 11 10.7402 11.0527 10.6465 11.1465C10.5527 11.2402 10.5 11.3674 10.5 11.5V13ZM6 5.5C6.00001 5.6326 6.0527 5.75977 6.14646 5.85354C6.24023 5.9473 6.3674 5.99999 6.5 6H7.5L7.5 15C7.5 15.1326 7.55268 15.2598 7.64645 15.3536C7.74021 15.4473 7.86739 15.5 8 15.5C8.13261 15.5 8.25979 15.4473 8.35355 15.3536C8.44732 15.2598 8.5 15.1326 8.5 15V6H9.5C9.6326 5.99999 9.75977 5.9473 9.85354 5.85354C9.9473 5.75977 9.99999 5.6326 10 5.5V4C9.99999 3.8674 9.9473 3.74023 9.85354 3.64646C9.75977 3.5527 9.6326 3.50001 9.5 3.5H8.5V2C8.5 1.86739 8.44732 1.74021 8.35355 1.64645C8.25979 1.55268 8.13261 1.5 8 1.5C7.86739 1.5 7.74021 1.55268 7.64645 1.64645C7.55268 1.74021 7.5 1.86739 7.5 2V3.5H6.5C6.3674 3.50001 6.24023 3.5527 6.14646 3.64646C6.0527 3.74023 6.00001 3.8674 6 4V5.5ZM1.5 13C1.50001 13.1326 1.5527 13.2598 1.64646 13.3535C1.74023 13.4473 1.8674 13.5 2 13.5H3V15C3 15.1326 3.05268 15.2598 3.14645 15.3536C3.24021 15.4473 3.36739 15.5 3.5 15.5C3.63261 15.5 3.75979 15.4473 3.85355 15.3536C3.94732 15.2598 4 15.1326 4 15V13.5H5C5.1326 13.5 5.25977 13.4473 5.35354 13.3535C5.4473 13.2598 5.49999 13.1326 5.5 13V11.5C5.49999 11.3674 5.4473 11.2402 5.35354 11.1465C5.25977 11.0527 5.1326 11 5 11H4L4 2C4 1.86739 3.94732 1.74021 3.85355 1.64645C3.75979 1.55268 3.63261 1.5 3.5 1.5C3.36739 1.5 3.24021 1.55268 3.14645 1.64645C3.05268 1.74021 3 1.86739 3 2L3 11H2C1.8674 11 1.74023 11.0527 1.64646 11.1465C1.5527 11.2402 1.50001 11.3674 1.5 11.5V13Z" fill="#8E8D8B"/>
</svg>
