<svg width="32" height="38" viewBox="0 0 32 38" fill="none" xmlns="http://www.w3.org/2000/svg">
<g id="famicons:book-outline">
<path id="Vector" d="M16 11.875C17 7.18735 20.7769 4.7938 29 4.75001C29.1315 4.74942 29.2617 4.77973 29.3833 4.8392C29.5048 4.89867 29.6153 4.98612 29.7082 5.09651C29.8012 5.20689 29.8748 5.33804 29.9249 5.48238C29.975 5.62672 30.0005 5.7814 30 5.93751V27.3125C30 27.6275 29.8946 27.9295 29.7071 28.1522C29.5196 28.3749 29.2652 28.5 29 28.5C21 28.5 17.9094 30.4156 16 33.25M16 11.875C15 7.18735 11.2231 4.7938 3.00001 4.75001C2.86855 4.74942 2.73829 4.77973 2.61674 4.8392C2.49519 4.89867 2.38475 4.98612 2.29179 5.09651C2.19884 5.20689 2.1252 5.33804 2.07512 5.48238C2.02504 5.62672 1.99951 5.7814 2.00001 5.93751V27.1693C2.00001 27.9025 2.38251 28.5 3.00001 28.5C11 28.5 14.1019 30.4297 16 33.25M16 11.875V33.25" stroke="#027A36" stroke-linecap="round" stroke-linejoin="round"/>
<path id="Vector_2" d="M15.6 12.3999C16.6 8.45241 20.3769 6.43678 28.6 6.39991C28.7314 6.39941 28.8617 6.42494 28.9832 6.47502C29.1048 6.5251 29.2152 6.59874 29.3082 6.6917C29.4011 6.78465 29.4748 6.89509 29.5249 7.01664C29.5749 7.13819 29.6005 7.26845 29.6 7.39991V25.3999C29.6 25.6651 29.4946 25.9195 29.3071 26.107C29.1195 26.2946 28.8652 26.3999 28.6 26.3999C20.6 26.3999 17.5094 28.013 15.6 30.3999C13.7019 28.0249 10.6 26.3999 2.59998 26.3999C1.98248 26.3999 1.59998 25.8968 1.59998 25.2793V7.39991C1.59949 7.26845 1.62501 7.13819 1.67509 7.01664C1.72517 6.89509 1.79881 6.78465 1.89177 6.6917C1.98473 6.59874 2.09516 6.5251 2.21671 6.47502C2.33826 6.42494 2.46852 6.39941 2.59998 6.39991C10.8231 6.43678 14.6 8.45241 15.6 12.3999ZM15.6 12.3999V30.3999V12.3999Z" fill="#027A36"/>
</g>
</svg>
