<svg width="170" height="169" viewBox="0 0 170 169" fill="none" xmlns="http://www.w3.org/2000/svg">
<path id="Star 1" d="M77.8958 3.63424C81.499 -0.998589 88.501 -0.998582 92.1042 3.63424L98.7534 12.1834C101.227 15.3644 105.514 16.5131 109.247 14.9953L119.28 10.9161C124.717 8.70555 130.781 12.2066 131.585 18.0203L133.069 28.7488C133.621 32.7405 136.759 35.8788 140.751 36.4309L151.48 37.9147C157.293 38.7187 160.794 44.7827 158.584 50.2196L154.505 60.2526C152.987 63.9856 154.136 68.2725 157.317 70.7466L165.866 77.3958C170.499 80.999 170.499 88.001 165.866 91.6042L157.317 98.2534C154.136 100.727 152.987 105.014 154.505 108.747L158.584 118.78C160.794 124.217 157.293 130.281 151.48 131.085L140.751 132.569C136.759 133.121 133.621 136.259 133.069 140.251L131.585 150.98C130.781 156.793 124.717 160.294 119.28 158.084L109.247 154.005C105.514 152.487 101.227 153.636 98.7534 156.817L92.1042 165.366C88.501 169.999 81.499 169.999 77.8958 165.366L71.2466 156.817C68.7725 153.636 64.4856 152.487 60.7526 154.005L50.7196 158.084C45.2827 160.294 39.2187 156.793 38.4147 150.98L36.9309 140.251C36.3788 136.259 33.2405 133.121 29.2487 132.569L18.5203 131.085C12.7066 130.281 9.20555 124.217 11.4161 118.78L15.4953 108.747C17.0131 105.014 15.8644 100.727 12.6834 98.2534L4.13424 91.6042C-0.498589 88.001 -0.498582 80.999 4.13424 77.3958L12.6834 70.7466C15.8644 68.2725 17.0131 63.9856 15.4953 60.2526L11.4161 50.2196C9.20555 44.7827 12.7066 38.7187 18.5203 37.9147L29.2487 36.4309C33.2405 35.8788 36.3788 32.7405 36.9309 28.7487L38.4147 18.0203C39.2187 12.2066 45.2827 8.70555 50.7196 10.9161L60.7526 14.9953C64.4856 16.5131 68.7725 15.3644 71.2466 12.1834L77.8958 3.63424Z" fill="#FF8806"/>
</svg>
