<svg width="11" height="10" viewBox="0 0 11 10" fill="none" xmlns="http://www.w3.org/2000/svg">
<path id="Vector" d="M5.1997 8.37749L2.77601 9.90623C2.66893 9.97757 2.557 10.0081 2.44019 9.99795C2.32339 9.98776 2.22118 9.947 2.13358 9.87566C2.04598 9.80431 1.97784 9.71524 1.92917 9.60843C1.8805 9.50162 1.87077 9.38177 1.89997 9.24887L2.5424 6.35956L0.39611 4.41806C0.298773 4.32633 0.238035 4.22177 0.213895 4.10436C0.189756 3.98695 0.196958 3.8724 0.235504 3.7607C0.27405 3.649 0.332452 3.55727 0.410711 3.48553C0.48897 3.41378 0.596041 3.36791 0.731924 3.34794L3.56444 3.08805L4.65948 0.366897C4.70815 0.244598 4.78368 0.152874 4.88608 0.0917243C4.98848 0.0305747 5.09302 0 5.1997 0C5.30638 0 5.41092 0.0305747 5.51332 0.0917243C5.61572 0.152874 5.69126 0.244598 5.73992 0.366897L6.83497 3.08805L9.66748 3.34794C9.80375 3.36832 9.91082 3.41418 9.98869 3.48553C10.0666 3.55687 10.125 3.64859 10.1639 3.7607C10.2028 3.87281 10.2102 3.98756 10.1861 4.10497C10.162 4.22238 10.101 4.32674 10.0033 4.41806L7.85701 6.35956L8.49943 9.24887C8.52864 9.38136 8.5189 9.50122 8.47023 9.60843C8.42156 9.71565 8.35343 9.80472 8.26582 9.87566C8.17822 9.94659 8.07602 9.98735 7.95921 9.99795C7.84241 10.0086 7.73047 9.97798 7.6234 9.90623L5.1997 8.37749Z" fill="#E3BD83"/>
</svg>
