<svg width="10" height="10" viewBox="0 0 10 10" fill="none" xmlns="http://www.w3.org/2000/svg">
<path id="Vector" d="M5.2665 7.95459L4.99975 7.78634L4.73301 7.95459L2.30931 9.48333L2.30923 9.48319L2.29881 9.49013C2.29017 9.49589 2.28454 9.49856 2.28184 9.49967C2.26228 9.49774 2.25605 9.4934 2.24936 9.48795C2.22379 9.46713 2.20224 9.44068 2.18421 9.40111C2.1842 9.40109 2.1842 9.40108 2.18419 9.40106C2.18415 9.40097 2.18415 9.40096 2.18417 9.40103L2.18407 9.40042L2.18378 9.39796C2.18342 9.39357 2.18305 9.38057 2.18827 9.35662C2.1883 9.35647 2.18834 9.35633 2.18837 9.35618L2.83053 6.46808L2.89369 6.18399L2.67787 5.98875L0.536285 4.05151C0.507851 4.02398 0.504818 4.00914 0.503752 4.00392L0.503699 4.00366C0.497354 3.9728 0.499362 3.94942 0.508202 3.9238C0.521056 3.88655 0.534781 3.86802 0.544884 3.85772C0.550616 3.85502 0.565323 3.8493 0.59375 3.84437L3.41017 3.58596L3.71431 3.55806L3.82834 3.27472L4.92338 0.55356L4.92338 0.553561L4.9241 0.55177C4.93132 0.533608 4.93716 0.526043 4.93865 0.524223C4.93979 0.522841 4.94038 0.522263 4.94248 0.521006C4.97676 0.500538 4.99367 0.5 4.99975 0.5C5.00583 0.5 5.02274 0.500538 5.05702 0.521006C5.05912 0.522263 5.05971 0.522842 5.06085 0.524224C5.06235 0.526044 5.06818 0.533609 5.07541 0.551771L5.0754 0.551773L5.07612 0.55356L6.17117 3.27472L6.28519 3.55806L6.58933 3.58596L9.40506 3.84431C9.43402 3.84942 9.44904 3.85527 9.45492 3.85803C9.46455 3.86796 9.4784 3.88667 9.49162 3.92474C9.5007 3.95089 9.50258 3.97414 9.49639 4.00427L9.49631 4.00464C9.49537 4.0093 9.49249 4.02361 9.46419 4.05063L7.32164 5.98875L7.10581 6.18399L7.16898 6.46808L7.8112 9.35649C7.81123 9.35662 7.81126 9.35675 7.81129 9.35687C7.81644 9.38042 7.81608 9.39324 7.81572 9.39766C7.81554 9.39997 7.81527 9.40099 7.81524 9.4011L7.81499 9.40176C7.79696 9.44148 7.77574 9.46722 7.75123 9.48707C7.74421 9.49276 7.73713 9.49751 7.71712 9.49969C7.71432 9.49844 7.70923 9.49585 7.70179 9.49086L7.70189 9.49071L7.69019 9.48333L5.2665 7.95459ZM0.541961 3.85928C0.541947 3.85927 0.542254 3.85906 0.542929 3.8587L0.541961 3.85928ZM9.45793 3.85962C9.45793 3.85964 9.45762 3.85947 9.45703 3.85908L9.45793 3.85962Z" stroke="#E3BD83"/>
</svg>
