<svg width="40" height="46" viewBox="0 0 40 46" fill="none" xmlns="http://www.w3.org/2000/svg">
<g id="Quote">
<path id="Vector" fill-rule="evenodd" clip-rule="evenodd" d="M17.6 10.0001C10.6571 14.4572 7.28571 19.0572 7.28571 26.7429C7.74286 26.6001 8.14286 26.6001 8.54286 26.6001C12.1714 26.6001 15.6857 29.0572 15.6857 33.4858C15.6857 38.0858 12.7429 40.9429 8.54286 40.9429C3.11429 40.9429 0 36.6001 0 28.8001C0 17.9429 5 10.1429 14.3429 4.74292L17.6 10.0001ZM37.6 10.0001C30.6571 14.4572 27.2857 19.0572 27.2857 26.7429C27.7429 26.6001 28.1429 26.6001 28.5429 26.6001C32.1714 26.6001 35.6857 29.0572 35.6857 33.4858C35.6857 38.0858 32.7429 40.9429 28.5429 40.9429C23.1429 40.9429 20.0286 36.6001 20.0286 28.8001C20.0286 17.9429 25.0286 10.1429 34.3714 4.74292L37.6286 10.0001H37.6Z" fill="#BF6A02"/>
</g>
</svg>
